<svg data-v-423bf9ae="" xmlns="http://www.w3.org/2000/svg" viewBox="0 0 134.1682669886913 60" class="font"><!----><!----><!----><g data-v-423bf9ae="" id="7f57d95c-ae10-48a9-9e0b-6a587201ceab" fill="white" transform="matrix(5.736137646384677,0,0,5.736137646384677,-2.7533450953136054,-27.30401603285162)"><path d="M4.03 15.22C5.39 15.22 6.41 14.63 6.68 13.64C6.80 13.10 6.69 12.85 6.50 12.77C6.30 13.48 5.61 14.03 4.62 14.03C3.29 14.03 2.53 13.15 2.53 11.07C2.53 9.27 3.05 8.23 3.92 8.23C4.41 8.23 4.75 8.48 4.75 9.21C4.75 9.70 4.62 10.04 4.35 10.29C4.56 10.51 4.97 10.63 5.35 10.63C6.12 10.63 6.66 10.15 6.66 9.38C6.66 8.41 5.84 7.59 4.07 7.59C1.75 7.59 0.48 9.03 0.48 11.38C0.48 13.83 1.75 15.22 4.03 15.22ZM9.81 15.16C10.50 15.16 11.09 14.74 11.09 14.15C11.09 13.99 11.03 13.75 10.89 13.55C10.81 13.69 10.61 13.73 10.49 13.73C10.16 13.73 10.00 13.48 10.00 12.99L10.00 7.91C10.00 6.75 10.04 6.08 10.28 5.18C10.12 5.04 9.74 4.76 9.18 4.76C8.55 4.76 8.08 5.12 8.08 5.75L8.08 13.16C8.08 14.39 8.68 15.16 9.81 15.16ZM15.22 15.22C17.40 15.22 18.68 13.80 18.68 11.41C18.68 9.00 17.40 7.59 15.22 7.59C13.03 7.59 11.76 9.00 11.76 11.41C11.76 13.80 13.03 15.22 15.22 15.22ZM15.22 14.57C14.25 14.57 13.82 13.51 13.82 11.41C13.82 9.30 14.25 8.23 15.22 8.23C16.17 8.23 16.60 9.30 16.60 11.41C16.60 13.51 16.17 14.57 15.22 14.57ZM22.19 7.80C22.23 7.29 22.30 6.86 22.44 6.34C22.29 6.20 21.91 5.92 21.35 5.92C20.72 5.92 20.24 6.29 20.24 6.90L20.24 7.80L19.71 7.80C19.45 7.80 19.22 7.94 19.21 8.25L19.19 8.71C19.38 8.68 19.85 8.65 20.03 8.65L20.24 8.65L20.24 13.16C20.24 14.39 20.86 15.16 21.99 15.16C22.95 15.16 23.53 14.74 23.53 14.15C23.53 13.99 23.48 13.75 23.34 13.55C23.27 13.69 22.97 13.73 22.79 13.73C22.37 13.73 22.16 13.48 22.16 12.99L22.16 9.06L22.16 8.65L23.37 8.65C23.63 8.65 23.84 8.50 23.86 8.19L23.87 7.74C23.74 7.77 22.48 7.80 22.19 7.80Z"></path></g><!----><!----></svg>